<mxfile host="Electron" modified="2024-02-02T08:32:26.056Z" agent="Mozilla/5.0 (Windows NT 10.0; Win64; x64) AppleWebKit/537.36 (KHTML, like Gecko) draw.io/22.0.2 Chrome/114.0.5735.289 Electron/25.8.4 Safari/537.36" etag="IeK2PT67NZ7BIl05tnwT" version="22.0.2" type="device">
  <diagram id="C5RBs43oDa-KdzZeNtuy" name="Page-1">
    <mxGraphModel dx="2150" dy="865" grid="1" gridSize="10" guides="1" tooltips="1" connect="1" arrows="1" fold="1" page="1" pageScale="1" pageWidth="827" pageHeight="1169" math="0" shadow="0">
      <root>
        <mxCell id="WIyWlLk6GJQsqaUBKTNV-0" />
        <mxCell id="WIyWlLk6GJQsqaUBKTNV-1" parent="WIyWlLk6GJQsqaUBKTNV-0" />
        <mxCell id="XPZAVfEoD8rUOzRJx1tR-17" style="edgeStyle=orthogonalEdgeStyle;rounded=0;orthogonalLoop=1;jettySize=auto;html=1;entryX=0;entryY=0.5;entryDx=0;entryDy=0;endArrow=none;endFill=0;" edge="1" parent="WIyWlLk6GJQsqaUBKTNV-1" source="XPZAVfEoD8rUOzRJx1tR-0" target="XPZAVfEoD8rUOzRJx1tR-16">
          <mxGeometry relative="1" as="geometry" />
        </mxCell>
        <mxCell id="XPZAVfEoD8rUOzRJx1tR-19" style="edgeStyle=orthogonalEdgeStyle;rounded=0;orthogonalLoop=1;jettySize=auto;html=1;entryX=0;entryY=0.5;entryDx=0;entryDy=0;endArrow=none;endFill=0;" edge="1" parent="WIyWlLk6GJQsqaUBKTNV-1" source="XPZAVfEoD8rUOzRJx1tR-0" target="XPZAVfEoD8rUOzRJx1tR-18">
          <mxGeometry relative="1" as="geometry" />
        </mxCell>
        <mxCell id="XPZAVfEoD8rUOzRJx1tR-21" style="edgeStyle=orthogonalEdgeStyle;rounded=0;orthogonalLoop=1;jettySize=auto;html=1;entryX=0;entryY=0.5;entryDx=0;entryDy=0;endArrow=none;endFill=0;" edge="1" parent="WIyWlLk6GJQsqaUBKTNV-1" source="XPZAVfEoD8rUOzRJx1tR-0" target="XPZAVfEoD8rUOzRJx1tR-20">
          <mxGeometry relative="1" as="geometry" />
        </mxCell>
        <mxCell id="XPZAVfEoD8rUOzRJx1tR-0" value="Compte" style="shape=umlActor;verticalLabelPosition=bottom;verticalAlign=top;html=1;outlineConnect=0;" vertex="1" parent="WIyWlLk6GJQsqaUBKTNV-1">
          <mxGeometry x="212.5" y="230" width="30" height="60" as="geometry" />
        </mxCell>
        <mxCell id="XPZAVfEoD8rUOzRJx1tR-7" value="Connexion" style="ellipse;whiteSpace=wrap;html=1;" vertex="1" parent="WIyWlLk6GJQsqaUBKTNV-1">
          <mxGeometry x="70" y="80" width="120" height="80" as="geometry" />
        </mxCell>
        <mxCell id="XPZAVfEoD8rUOzRJx1tR-8" value="Inscription" style="ellipse;whiteSpace=wrap;html=1;" vertex="1" parent="WIyWlLk6GJQsqaUBKTNV-1">
          <mxGeometry x="230" y="80" width="120" height="80" as="geometry" />
        </mxCell>
        <mxCell id="XPZAVfEoD8rUOzRJx1tR-15" style="edgeStyle=orthogonalEdgeStyle;rounded=0;orthogonalLoop=1;jettySize=auto;html=1;" edge="1" parent="WIyWlLk6GJQsqaUBKTNV-1" source="XPZAVfEoD8rUOzRJx1tR-11" target="XPZAVfEoD8rUOzRJx1tR-0">
          <mxGeometry relative="1" as="geometry" />
        </mxCell>
        <mxCell id="XPZAVfEoD8rUOzRJx1tR-36" style="edgeStyle=orthogonalEdgeStyle;rounded=0;orthogonalLoop=1;jettySize=auto;html=1;endArrow=none;endFill=0;" edge="1" parent="WIyWlLk6GJQsqaUBKTNV-1" source="XPZAVfEoD8rUOzRJx1tR-11" target="XPZAVfEoD8rUOzRJx1tR-27">
          <mxGeometry relative="1" as="geometry" />
        </mxCell>
        <mxCell id="XPZAVfEoD8rUOzRJx1tR-37" style="edgeStyle=orthogonalEdgeStyle;rounded=0;orthogonalLoop=1;jettySize=auto;html=1;entryX=1;entryY=0.5;entryDx=0;entryDy=0;endArrow=none;endFill=0;" edge="1" parent="WIyWlLk6GJQsqaUBKTNV-1" source="XPZAVfEoD8rUOzRJx1tR-11" target="XPZAVfEoD8rUOzRJx1tR-33">
          <mxGeometry relative="1" as="geometry" />
        </mxCell>
        <mxCell id="XPZAVfEoD8rUOzRJx1tR-38" style="edgeStyle=orthogonalEdgeStyle;rounded=0;orthogonalLoop=1;jettySize=auto;html=1;entryX=1;entryY=0.5;entryDx=0;entryDy=0;endArrow=none;endFill=0;" edge="1" parent="WIyWlLk6GJQsqaUBKTNV-1" source="XPZAVfEoD8rUOzRJx1tR-11" target="XPZAVfEoD8rUOzRJx1tR-25">
          <mxGeometry relative="1" as="geometry" />
        </mxCell>
        <mxCell id="XPZAVfEoD8rUOzRJx1tR-39" style="edgeStyle=orthogonalEdgeStyle;rounded=0;orthogonalLoop=1;jettySize=auto;html=1;entryX=1;entryY=0.5;entryDx=0;entryDy=0;endArrow=none;endFill=0;" edge="1" parent="WIyWlLk6GJQsqaUBKTNV-1" source="XPZAVfEoD8rUOzRJx1tR-11" target="XPZAVfEoD8rUOzRJx1tR-26">
          <mxGeometry relative="1" as="geometry" />
        </mxCell>
        <mxCell id="XPZAVfEoD8rUOzRJx1tR-11" value="Admin" style="shape=umlActor;verticalLabelPosition=bottom;verticalAlign=top;html=1;outlineConnect=0;" vertex="1" parent="WIyWlLk6GJQsqaUBKTNV-1">
          <mxGeometry x="212.5" y="390" width="30" height="60" as="geometry" />
        </mxCell>
        <mxCell id="XPZAVfEoD8rUOzRJx1tR-16" value="Effectuer un temps sur une piste" style="ellipse;whiteSpace=wrap;html=1;" vertex="1" parent="WIyWlLk6GJQsqaUBKTNV-1">
          <mxGeometry x="500" y="290" width="120" height="80" as="geometry" />
        </mxCell>
        <mxCell id="XPZAVfEoD8rUOzRJx1tR-18" value="Observer les différents temps et classment sur une piste" style="ellipse;whiteSpace=wrap;html=1;" vertex="1" parent="WIyWlLk6GJQsqaUBKTNV-1">
          <mxGeometry x="500" y="160" width="120" height="80" as="geometry" />
        </mxCell>
        <mxCell id="XPZAVfEoD8rUOzRJx1tR-20" value="Consulter ces propre participations" style="ellipse;whiteSpace=wrap;html=1;" vertex="1" parent="WIyWlLk6GJQsqaUBKTNV-1">
          <mxGeometry x="630" y="220" width="120" height="80" as="geometry" />
        </mxCell>
        <mxCell id="XPZAVfEoD8rUOzRJx1tR-22" value="Rechercher une pistes via des criteres données" style="ellipse;whiteSpace=wrap;html=1;" vertex="1" parent="WIyWlLk6GJQsqaUBKTNV-1">
          <mxGeometry x="390" y="400" width="120" height="80" as="geometry" />
        </mxCell>
        <mxCell id="XPZAVfEoD8rUOzRJx1tR-24" value="" style="endArrow=none;html=1;rounded=0;entryX=0.052;entryY=0.162;entryDx=0;entryDy=0;entryPerimeter=0;endFill=0;" edge="1" parent="WIyWlLk6GJQsqaUBKTNV-1" target="XPZAVfEoD8rUOzRJx1tR-22">
          <mxGeometry width="50" height="50" relative="1" as="geometry">
            <mxPoint x="250" y="260" as="sourcePoint" />
            <mxPoint x="400" y="340" as="targetPoint" />
          </mxGeometry>
        </mxCell>
        <mxCell id="XPZAVfEoD8rUOzRJx1tR-25" value="Supprimer une piste donnée" style="ellipse;whiteSpace=wrap;html=1;" vertex="1" parent="WIyWlLk6GJQsqaUBKTNV-1">
          <mxGeometry x="-100" y="260" width="120" height="80" as="geometry" />
        </mxCell>
        <mxCell id="XPZAVfEoD8rUOzRJx1tR-26" value="Ajouté une piste" style="ellipse;whiteSpace=wrap;html=1;" vertex="1" parent="WIyWlLk6GJQsqaUBKTNV-1">
          <mxGeometry x="-100" y="620" width="120" height="80" as="geometry" />
        </mxCell>
        <mxCell id="XPZAVfEoD8rUOzRJx1tR-27" value="Supprimer un temps sur une piste" style="ellipse;whiteSpace=wrap;html=1;" vertex="1" parent="WIyWlLk6GJQsqaUBKTNV-1">
          <mxGeometry x="-100" y="370" width="120" height="80" as="geometry" />
        </mxCell>
        <mxCell id="XPZAVfEoD8rUOzRJx1tR-30" value="Modifier sont profil&lt;br&gt;(Photo de profil)" style="ellipse;whiteSpace=wrap;html=1;" vertex="1" parent="WIyWlLk6GJQsqaUBKTNV-1">
          <mxGeometry x="414" y="50" width="120" height="80" as="geometry" />
        </mxCell>
        <mxCell id="XPZAVfEoD8rUOzRJx1tR-31" value="" style="endArrow=none;html=1;rounded=0;entryX=0;entryY=1;entryDx=0;entryDy=0;endFill=0;" edge="1" parent="WIyWlLk6GJQsqaUBKTNV-1" target="XPZAVfEoD8rUOzRJx1tR-30">
          <mxGeometry width="50" height="50" relative="1" as="geometry">
            <mxPoint x="250" y="260" as="sourcePoint" />
            <mxPoint x="406" y="423" as="targetPoint" />
          </mxGeometry>
        </mxCell>
        <mxCell id="XPZAVfEoD8rUOzRJx1tR-32" value="Supprimer un compte" style="ellipse;whiteSpace=wrap;html=1;" vertex="1" parent="WIyWlLk6GJQsqaUBKTNV-1">
          <mxGeometry x="-270" y="490" width="120" height="80" as="geometry" />
        </mxCell>
        <mxCell id="XPZAVfEoD8rUOzRJx1tR-40" style="edgeStyle=orthogonalEdgeStyle;rounded=0;orthogonalLoop=1;jettySize=auto;html=1;endArrow=none;endFill=0;" edge="1" parent="WIyWlLk6GJQsqaUBKTNV-1" source="XPZAVfEoD8rUOzRJx1tR-33" target="XPZAVfEoD8rUOzRJx1tR-32">
          <mxGeometry relative="1" as="geometry" />
        </mxCell>
        <mxCell id="XPZAVfEoD8rUOzRJx1tR-33" value="Consulter la liste des comptes" style="ellipse;whiteSpace=wrap;html=1;" vertex="1" parent="WIyWlLk6GJQsqaUBKTNV-1">
          <mxGeometry x="-100" y="490" width="120" height="80" as="geometry" />
        </mxCell>
      </root>
    </mxGraphModel>
  </diagram>
</mxfile>
